{
    "asset": {
        "version": "2.0",
        "generator": "Open Asset Import Library (assimp v5.2.cf7d3637)"
    },
    "extensionsUsed": [
        "KHR_materials_volume",
        "FB_ngon_encoding"
    ],
    "accessors": [
        {
            "bufferView": 0,
            "byteOffset": 0,
            "componentType": 5126,
            "count": 1320,
            "type": "VEC3",
            "max": [
                3.115233898162842,
                3.275391101837158,
                0.9301760196685791
            ],
            "min": [
                -3.115233898162842,
                -2.662108898162842,
                -0.9301760196685791
            ]
        },
        {
            "bufferView": 1,
            "byteOffset": 0,
            "componentType": 5126,
            "count": 1320,
            "type": "VEC3",
            "max": [
                0.9917900562286377,
                1.0,
                1.0
            ],
            "min": [
                -0.9917900562286377,
                -1.0,
                -1.0
            ]
        },
        {
            "bufferView": 2,
            "byteOffset": 0,
            "componentType": 5126,
            "count": 1320,
            "type": "VEC2",
            "max": [
                0.9868929982185364,
                0.9793699979782105
            ],
            "min": [
                0.008666999638080597,
                0.014298021793365479
            ]
        },
        {
            "bufferView": 3,
            "byteOffset": 0,
            "componentType": 5125,
            "count": 1320,
            "type": "SCALAR",
            "max": [
                1319
            ],
            "min": [
                0
            ]
        },
        {
            "bufferView": 4,
            "byteOffset": 0,
            "componentType": 5123,
            "count": 1320,
            "type": "VEC4",
            "max": [
                0,
                0,
                0,
                0
            ],
            "min": [
                0,
                0,
                0,
                0
            ]
        },
        {
            "bufferView": 5,
            "byteOffset": 0,
            "componentType": 5126,
            "count": 1320,
            "type": "VEC4",
            "max": [
                1.0,
                0.0,
                0.0,
                0.0
            ],
            "min": [
                1.0,
                0.0,
                0.0,
                0.0
            ]
        },
        {
            "bufferView": 6,
            "byteOffset": 0,
            "componentType": 5126,
            "count": 1,
            "type": "MAT4",
            "max": [
                1.0,
                -0.0,
                0.0,
                -0.0,
                -0.0,
                1.0,
                -0.0,
                0.0,
                0.0,
                -0.0,
                1.0,
                -0.0,
                -0.0,
                0.0,
                -0.0,
                1.0
            ],
            "min": [
                1.0,
                -0.0,
                0.0,
                -0.0,
                -0.0,
                1.0,
                -0.0,
                0.0,
                0.0,
                -0.0,
                1.0,
                -0.0,
                -0.0,
                0.0,
                -0.0,
                1.0
            ]
        },
        {
            "bufferView": 7,
            "byteOffset": 0,
            "componentType": 5126,
            "count": 1,
            "type": "SCALAR",
            "max": [
                0.0
            ],
            "min": [
                0.0
            ]
        },
        {
            "bufferView": 8,
            "byteOffset": 0,
            "componentType": 5126,
            "count": 1,
            "type": "VEC3",
            "max": [
                0.0,
                0.0,
                0.0
            ],
            "min": [
                0.0,
                0.0,
                0.0
            ]
        },
        {
            "bufferView": 9,
            "byteOffset": 0,
            "componentType": 5126,
            "count": 1,
            "type": "SCALAR",
            "max": [
                0.0
            ],
            "min": [
                0.0
            ]
        },
        {
            "bufferView": 10,
            "byteOffset": 0,
            "componentType": 5126,
            "count": 1,
            "type": "VEC4",
            "max": [
                0.0,
                0.0,
                0.0,
                1.0
            ],
            "min": [
                0.0,
                0.0,
                0.0,
                1.0
            ]
        },
        {
            "bufferView": 11,
            "byteOffset": 0,
            "componentType": 5126,
            "count": 1,
            "type": "SCALAR",
            "max": [
                0.0
            ],
            "min": [
                0.0
            ]
        },
        {
            "bufferView": 12,
            "byteOffset": 0,
            "componentType": 5126,
            "count": 1,
            "type": "VEC3",
            "max": [
                1.0,
                1.0,
                1.0
            ],
            "min": [
                1.0,
                1.0,
                1.0
            ]
        },
        {
            "bufferView": 13,
            "byteOffset": 0,
            "componentType": 5126,
            "count": 1,
            "type": "SCALAR",
            "max": [
                0.0
            ],
            "min": [
                0.0
            ]
        },
        {
            "bufferView": 14,
            "byteOffset": 0,
            "componentType": 5126,
            "count": 1,
            "type": "VEC3",
            "max": [
                0.0,
                0.0,
                0.0
            ],
            "min": [
                0.0,
                0.0,
                0.0
            ]
        },
        {
            "bufferView": 15,
            "byteOffset": 0,
            "componentType": 5126,
            "count": 1,
            "type": "SCALAR",
            "max": [
                0.0
            ],
            "min": [
                0.0
            ]
        },
        {
            "bufferView": 16,
            "byteOffset": 0,
            "componentType": 5126,
            "count": 1,
            "type": "VEC4",
            "max": [
                0.0,
                0.0,
                0.0,
                1.0
            ],
            "min": [
                0.0,
                0.0,
                0.0,
                1.0
            ]
        },
        {
            "bufferView": 17,
            "byteOffset": 0,
            "componentType": 5126,
            "count": 1,
            "type": "SCALAR",
            "max": [
                0.0
            ],
            "min": [
                0.0
            ]
        },
        {
            "bufferView": 18,
            "byteOffset": 0,
            "componentType": 5126,
            "count": 1,
            "type": "VEC3",
            "max": [
                1.0,
                1.0,
                1.0
            ],
            "min": [
                1.0,
                1.0,
                1.0
            ]
        }
    ],
    "animations": [
        {
            "name": "anim",
            "channels": [
                {
                    "sampler": 0,
                    "target": {
                        "node": 1,
                        "path": "translation"
                    }
                },
                {
                    "sampler": 1,
                    "target": {
                        "node": 1,
                        "path": "rotation"
                    }
                },
                {
                    "sampler": 2,
                    "target": {
                        "node": 1,
                        "path": "scale"
                    }
                },
                {
                    "sampler": 3,
                    "target": {
                        "node": 2,
                        "path": "translation"
                    }
                },
                {
                    "sampler": 4,
                    "target": {
                        "node": 2,
                        "path": "rotation"
                    }
                },
                {
                    "sampler": 5,
                    "target": {
                        "node": 2,
                        "path": "scale"
                    }
                }
            ],
            "samplers": [
                {
                    "input": 7,
                    "interpolation": "LINEAR",
                    "output": 8
                },
                {
                    "input": 9,
                    "interpolation": "LINEAR",
                    "output": 10
                },
                {
                    "input": 11,
                    "interpolation": "LINEAR",
                    "output": 12
                },
                {
                    "input": 13,
                    "interpolation": "LINEAR",
                    "output": 14
                },
                {
                    "input": 15,
                    "interpolation": "LINEAR",
                    "output": 16
                },
                {
                    "input": 17,
                    "interpolation": "LINEAR",
                    "output": 18
                }
            ]
        }
    ],
    "buffers": [
        {
            "byteLength": 89928,
            "uri": "result.bin"
        }
    ],
    "bufferViews": [
        {
            "buffer": 0,
            "byteOffset": 0,
            "byteLength": 15840,
            "target": 34962
        },
        {
            "buffer": 0,
            "byteOffset": 15840,
            "byteLength": 15840,
            "target": 34962
        },
        {
            "buffer": 0,
            "byteOffset": 31680,
            "byteLength": 10560,
            "target": 34962
        },
        {
            "buffer": 0,
            "byteOffset": 42240,
            "byteLength": 5280,
            "target": 34963
        },
        {
            "buffer": 0,
            "byteOffset": 47520,
            "byteLength": 10560
        },
        {
            "buffer": 0,
            "byteOffset": 68640,
            "byteLength": 21120
        },
        {
            "buffer": 0,
            "byteOffset": 89760,
            "byteLength": 64
        },
        {
            "buffer": 0,
            "byteOffset": 89824,
            "byteLength": 4
        },
        {
            "buffer": 0,
            "byteOffset": 89828,
            "byteLength": 12
        },
        {
            "buffer": 0,
            "byteOffset": 89840,
            "byteLength": 4
        },
        {
            "buffer": 0,
            "byteOffset": 89844,
            "byteLength": 16
        },
        {
            "buffer": 0,
            "byteOffset": 89860,
            "byteLength": 4
        },
        {
            "buffer": 0,
            "byteOffset": 89864,
            "byteLength": 12
        },
        {
            "buffer": 0,
            "byteOffset": 89876,
            "byteLength": 4
        },
        {
            "buffer": 0,
            "byteOffset": 89880,
            "byteLength": 12
        },
        {
            "buffer": 0,
            "byteOffset": 89892,
            "byteLength": 4
        },
        {
            "buffer": 0,
            "byteOffset": 89896,
            "byteLength": 16
        },
        {
            "buffer": 0,
            "byteOffset": 89912,
            "byteLength": 4
        },
        {
            "buffer": 0,
            "byteOffset": 89916,
            "byteLength": 12
        }
    ],
    "images": [
        {
            "uri": "mt_ItemStar"
        }
    ],
    "materials": [
        {
            "name": "Texture_0",
            "pbrMetallicRoughness": {
                "baseColorTexture": {
                    "index": 0
                },
                "metallicFactor": 0.0
            }
        }
    ],
    "meshes": [
        {
            "primitives": [
                {
                    "mode": 4,
                    "material": 0,
                    "indices": 3,
                    "attributes": {
                        "POSITION": 0,
                        "NORMAL": 1,
                        "TEXCOORD_0": 2,
                        "JOINTS_0": 4,
                        "WEIGHTS_0": 5
                    }
                }
            ]
        }
    ],
    "nodes": [
        {
            "name": "<SMD_root>",
            "children": [
                1,
                2
            ],
            "mesh": 0,
            "skin": 0
        },
        {
            "name": "blender_implicit"
        },
        {
            "name": "ItemStar"
        }
    ],
    "samplers": [
        {}
    ],
    "scenes": [
        {
            "nodes": [
                0
            ]
        }
    ],
    "skins": [
        {
            "name": "skin",
            "joints": [
                2
            ],
            "inverseBindMatrices": 6
        }
    ],
    "textures": [
        {
            "source": 0,
            "sampler": 0
        }
    ],
    "scene": 0
}